<svg version="1.1" width="303" height="303" viewBox="-0.5546875 -1.15234375 303 303" xmlns="http://www.w3.org/2000/svg" xmlns:xlink="http://www.w3.org/1999/xlink">
  <!-- Exported by Scratch - http://scratch.mit.edu/ -->
  <g id="ID0.8525961264967918">
    <g id="layer1">
      <g id="g4168">
        <path id="rect3336" fill="#e74c3c" stroke="none" stroke-width="3" stroke-linecap="round" stroke-linejoin="round" opacity="1" d="M 0.946 0.346 L 300.946 0.346 L 300.946 300.346 L 0.946 300.346 Z "/>
        <path id="rect4149" fill="#ffffff" stroke="none" stroke-width="3" stroke-linecap="round" stroke-linejoin="round" opacity="1" d="M 188.915 36.515 C 188.915 36.515 190.042 61.588 180.634 71.32 C 171.225 81.052 147.121 80.893 147.121 80.893 C 147.121 80.893 145.993 55.82 155.402 46.088 C 164.811 36.356 188.915 36.515 188.915 36.515 Z "/>
        <path id="path4166" fill="#ffffff" stroke="none" stroke-width="3" stroke-linecap="round" stroke-linejoin="round" opacity="1" d="M 150.946 84.176 C 101.241 84.176 60.946 124.471 60.946 174.176 C 60.946 223.882 101.241 264.176 150.946 264.176 C 166.757 264.137 182.277 259.934 195.946 251.989 L 195.946 264.176 L 240.946 264.176 L 240.946 174.176 C 240.946 124.471 200.652 84.176 150.946 84.176 Z "/>
        <path id="path4139" fill="#e74c3c" stroke="none" stroke-width="3" stroke-linecap="round" stroke-linejoin="round" opacity="1" d="M 173.445 174.176 C 173.445 186.603 163.372 196.676 150.945 196.676 C 138.519 196.676 128.445 186.603 128.445 174.176 C 128.445 161.75 138.519 151.676 150.945 151.676 C 163.372 151.676 173.445 161.75 173.445 174.176 Z "/>
      </g>
    </g>
  </g>
</svg>